<?xml version="1.0" encoding="utf-8"?>
<!-- Generator: Adobe Illustrator 18.1.1, SVG Export Plug-In . SVG Version: 6.00 Build 0)  -->
<svg version="1.1" id="Layer_1" xmlns="http://www.w3.org/2000/svg" xmlns:xlink="http://www.w3.org/1999/xlink" x="0px" y="0px"
	 viewBox="0 0 792 252.3" enable-background="new 0 0 792 252.3" xml:space="preserve">
<g>
	<path fill="#72CFE9" d="M12.4,177.8c5.8,3.9,12.3,5.6,19,6.5c4.6,6,9.3,12,13.3,18.2c9.1,14.4,19.3,25.3,34.4,33.6
		c27.1,14.8,67.2,16.1,87.6-10.4c7.8-10.1,10.4-27.1,21.1-34.4c9.6-6.6,22.4-8.1,33.5-10.3c26.2-5.2,48.4-14.9,58.6-41.1
		c3.9-9.9,3.5-19.8,0.4-29c-1.1-14.4-8.8-28.9-22.5-38.9c-8.4-6.1-18.3-9.3-28.5-11.6c-1.6-1.3-3.1-2.6-4.6-3.9
		c-17.4-15.6-29.4-36.6-40.4-56.8c-0.1-0.1-0.2-0.3-0.2-0.4H1v167.3C4,170.8,7.7,174.6,12.4,177.8z"/>
	<path fill="#ABD037" d="M370.1,37.9c2.1,6.2,5.3,11.9,9.3,17c5.3,11.6,6,25,4.1,37.6c-2.9,19.6-5.1,41.8,18.4,48.7
		c9.2,2.7,19.8,1.6,29.8-2c3.8-0.5,7.7-0.5,11.9,0.4c10.8,2.5,14.4,14.4,21.3,21.7c13.5,14.4,35.4,5,48.2-5.1
		c7.1-5.6,12.9-11.9,16.5-19.1c4.8-4.6,9.8-8.8,15.7-11.5c0.2,0,0.4,0,0.7,0c14.6-0.6,29.1,1.5,43.7,0.3
		c24.6-2.1,41.3-17.2,46.2-41.1c4-19.3-1-38-14-51.9c-7.9-10.5-18.5-17.6-29.1-26.7c-2.2-1.8-3.9-3.9-5.3-6.1H371.9
		C364.2,10.7,365.7,25,370.1,37.9z"/>
	<path fill="#F15B2A" d="M759.7,68.9c1.2,3.3,2.6,6.5,4.3,9.6c1.3,3.1,3.1,5.9,5.1,8.4c3.3,4.9,7,9.5,10.8,14
		c4.3,9.5,3,21.5,3.5,31.6c0.7,13.9,3.2,27.3,10.8,38V3.1h-6.9c-1.7,0.7-3.3,1.4-5,2.3C756.9,18.5,750.6,43.5,759.7,68.9z"/>
</g>
</svg>
