<?xml version="1.0" encoding="utf-8"?>
<!-- Generator: Adobe Illustrator 16.0.0, SVG Export Plug-In . SVG Version: 6.00 Build 0)  -->
<!DOCTYPE svg PUBLIC "-//W3C//DTD SVG 1.1//EN" "http://www.w3.org/Graphics/SVG/1.1/DTD/svg11.dtd">
<svg version="1.1" id="Layer_1" xmlns="http://www.w3.org/2000/svg" xmlns:xlink="http://www.w3.org/1999/xlink" x="0px" y="0px"
	 width="1920px" height="1080px" viewBox="0 0 1920 1080" enable-background="new 0 0 1920 1080" xml:space="preserve">
<path fill="#71CDE8" d="M1808.646,483.092c19.335,17.624,46.9,27.687,72.958,33.217c45.029,9.554,92.555-2.61,129.848-28.552
	c40.811-28.376,61.588-73.207,53.046-121.937c-4.765-27.157-24.853-49.644-42.397-69.677
	c-22.623-25.833-37.385-52.204-52.565-82.704c-3.648-7.326-7.862-13.926-12.529-19.766c-18.317-33.305-54.292-46.776-94.477-26.97
	c-51.255,25.265-46.544,95.973-41.063,141.91c3.004,25.233-1.592,41.72-16.81,61.677c-13.497,17.704-28.593,36.952-29.16,60.211
	C1774.861,455.847,1789.092,473.941,1808.646,483.092z"/>
<path fill="#71CDE8" d="M17.531,114.29c9.948,6.806,21.182,9.733,32.863,11.216c7.862,10.408,16.079,20.667,22.878,31.387
	c15.688,24.766,33.368,43.663,59.427,57.9c46.76,25.562,115.925,27.708,151.163-17.992c13.406-17.399,17.891-46.771,36.316-59.37
	c16.62-11.384,38.568-13.901,57.871-17.758c45.284-9.047,83.427-25.759,101.087-70.896c6.702-17.103,6.073-34.239,0.634-50.06
	c-1.928-24.921-15.198-49.786-38.865-67.051c-14.451-10.542-31.636-15.97-49.229-20.058c-2.748-2.226-5.395-4.442-7.878-6.645
	c-30.089-26.832-50.636-63.208-69.775-98.007c-0.129-0.238-0.269-0.467-0.399-0.702H-2.163V94.958
	C2.966,102.177,9.378,108.707,17.531,114.29z"/>
<path fill="#ABCF37" d="M1381.258,835.378c-23.934-8.597-37.98-18.078-55.104-36.991c-33.235-36.74-84.745-65.271-130.068-27.945
	c-8.552,7.049-15.785,15.807-21.784,25.535c-32.589,29.833-40.134,81.368-19.905,120.121
	c28.047,53.728,97.458,72.813,153.719,78.252c13.577,1.317,28.754,0.281,44.067-2.77c25.693,0.521,50.863-3.566,75.912-15.427
	c19.85-9.403,33.012-25.769,38.174-43.947c1.71-4.073,2.48-8.383,2.329-12.609c1.328-18.007-5.137-36.631-20.754-51.355
	C1429.965,851.385,1403.902,843.499,1381.258,835.378z"/>
<path fill="#F05A29" d="M600.594,420.898c4.36-14.435,5.923-29.585,4.94-44.654c0.18-10.776-2-21.445-5.861-31.562
	c-4.464-14.353-11.273-28.046-20.27-40.286c-12.041-16.392-26.111-26.867-41.236-32.241c-9.897-5.625-20.986-9.148-33.23-10.917
	c-54.204-7.79-100.437,35.136-145.709,56.262c-17.902,8.361-35.761,11.563-53.915,13.188c-21.363-6.815-44.247-7.944-66.481-6.158
	c-47.396,3.81-96.695,41.095-100.589,90.218c-4.176,52.749,62.221,70.806,98.043,90.669c19.104,10.588,40.509,25.725,46.72,47.645
	c5.537,19.552,6.064,40.659,8.123,60.757c3.826,37.152,12.416,81.924,50.044,99.694c39.272,18.537,71.975-1.87,94.214-34.595
	c0.693-1.012,1.337-2.088,2.015-3.146c1.815-1.498,3.46-3.417,4.785-5.935c23.992-45.291,61.691-62.94,111.098-68.843
	c18.276-2.19,37.978-4.521,54.396-11.996c5.755-1.697,11.292-4.299,16.452-8.159c13.671-10.217,20.745-23.949,22.235-40.718
	c3.199-35.798-26.303-68.112-41.144-98.018C601.781,435.157,600.625,428.072,600.594,420.898z"/>
<path fill="#ABCF37" d="M634.727-127.062c3.679,10.672,9.184,20.468,16.095,29.269c9.181,20.074,10.396,43.094,7.122,64.788
	c-5.087,33.841-8.825,72.034,31.764,84.081c15.935,4.731,34.228,2.832,51.364-3.523c6.618-0.781,13.334-0.937,20.5,0.736
	c18.561,4.301,24.827,24.832,36.676,37.425c23.332,24.791,61.055,8.615,83.121-8.863c12.19-9.644,22.328-20.475,28.44-32.874
	c8.263-7.945,16.867-15.223,27.012-19.797c0.39-0.017,0.765-0.071,1.139-0.083c25.174-1.038,50.231,2.653,75.399,0.562
	c42.416-3.54,71.257-29.738,79.776-70.946c6.861-33.221-1.7-65.576-24.164-89.578c-13.597-18.065-31.938-30.308-50.138-45.986
	c-3.715-3.19-6.661-6.765-9.153-10.592H637.72C624.451-173.938,627.048-149.335,634.727-127.062z"/>
<path fill="#ABCF37" d="M1782.357,640.174c-45.4,12.69-92.507-3.339-133.185,26.539c-4.906,3.598-9.501,7.699-13.748,12.162
	c-3.517,2.339-6.938,4.81-10.187,7.399c-31.917,25.376-41.431,64.868-38.416,103.388c-0.521,3.169-0.96,6.321-1.248,9.47
	c-2.789,31.334-23.972,45.215-39.113,70.395c-14.698,24.431-16.879,52.559-14.966,80.326
	c3.306,47.779,18.979,106.868,50.695,143.783c34.037,39.625,101.166,57.65,150.593,41.977
	c55.346-17.568,81.254-73.494,130.921-99.19c15.989-8.267,35.227-12.18,54.29-15.411V573.457
	c-7.399,0.424-14.775,1.522-21.974,3.377C1852.373,588.097,1824.811,628.302,1782.357,640.174z"/>
<path fill="#F05A29" d="M226.542,1108.738c-62.9-10.111-110.083,43.617-164.081,67.178c-21.672-5.759-43.791-6.794-64.853-1.059
	v4.023h315.786C293.798,1143.46,268.287,1115.445,226.542,1108.738z"/>
<path fill="#71CDE8" d="M684.021,1155.701c26.435-46.152,45.467-93.782,30.651-147.286c-11.347-40.972-52.462-56.772-90.16-64.997
	c-21.428-4.682-42.967-7.592-64.394-10.835c-3.72-1.672-7.436-3.344-11.179-5.059c-33.004-15.106-71.364-31.476-108.146-20.983
	c-29.9,8.513-50.756,36.356-52.875,66.257c0,0.051-0.005,0.105-0.005,0.156c-13.18,33.735,4.086,69.491,21.525,100.262
	c25.726,45.403,17.834,97.181,13.009,146.779c-3.078,31.484,1.065,71.658,25.397,91.758h91.19
	c23.461-10.801,45.165-27.004,62.064-42.705C634.747,1237.793,661.397,1195.208,684.021,1155.701z"/>
<path fill="#71CDE8" d="M1663.369,426.589c26.433-46.152,45.466-93.784,30.649-147.286c-11.348-40.971-52.462-56.774-90.157-64.998
	c-21.429-4.679-42.969-7.594-64.397-10.834c-3.719-1.669-7.435-3.345-11.177-5.057c-33.002-15.109-71.364-31.479-108.146-20.986
	c-29.9,8.514-50.757,36.356-52.873,66.259c0,0.05-0.008,0.104-0.008,0.155c-13.181,33.733,4.085,69.489,21.525,100.261
	c25.725,45.403,17.833,97.18,13.009,146.783c-3.079,31.483,1.063,71.655,25.397,91.756h91.188
	c23.462-10.804,45.165-27.005,62.066-42.705C1614.094,508.679,1640.746,466.097,1663.369,426.589z"/>
<path fill="#9070B0" d="M835.318,862.491c-3.235,0.488-6.431,1.18-9.534,2.269c-38.496,13.604-16.022,57.729-6.139,82.616
	c0.376,3.33,1.417,6.569,3.078,9.377c4.869,17.919,5.118,37.076,14.89,53.576c12.702,21.426,32.237,27.478,56.074,28.617
	c39.327,1.863,77.489-25.736,88.819-62.662C1006.325,898.644,903.994,839.118,835.318,862.491z"/>
<path fill="#F05A29" d="M1235.297,1100.833c-26.484-18.409-62.771-8.783-88.813,4.786c-13.356,6.97-25.596,16.745-36.062,27.463
	c-10.512,10.744-17.683,23.764-27.484,34.945c-11.13,12.716-32.838,4.338-45.759-1.12c-14.925-6.319-27.689-12.205-43.938-14.042
	c-24.234-2.752-52.303-0.208-72.461,14.65c-4.658,3.42-8.371,7.244-11.322,11.365h371.965
	c-6.954-10.665-10.143-23.315-14.775-35.532C1260.068,1125.997,1250.696,1111.547,1235.297,1100.833z"/>
<path fill="#9070B0" d="M1861.393-73.608c2.026,5.64,4.549,11.134,7.415,16.51c2.308,5.396,5.356,10.151,8.833,14.553
	c5.65,8.378,12.015,16.422,18.699,24.106c7.408,16.374,5.145,37.166,5.976,54.532c1.148,23.979,5.512,47.044,18.619,65.506v-288.7
	h-11.831c-2.89,1.171-5.756,2.451-8.587,3.914C1856.562-160.519,1845.572-117.44,1861.393-73.608z"/>
<path fill="#9070B0" d="M92.556,1015.239c35.928-7.024,74.149-12.091,106.622-29.934C265.973,948.613,254,866.169,211.448,814.46
	c-12.989-15.784-29.731-28.736-45.57-41.535c-18.997-15.353-27.791-35.461-35.678-57.928
	c-13.555-38.646-27.437-72.782-59.291-100.33c-21.206-18.334-49.253-26.696-76.85-25.134V1037.1
	c12.425-2.107,24.771-3.932,36.119-6.483C51.133,1025.896,71.43,1019.379,92.556,1015.239z"/>
<path fill="#F05A29" d="M1273.377-85.687c7.024,35.927,12.092,74.15,29.934,106.623c36.691,66.794,119.138,54.822,170.847,12.27
	c15.785-12.987,28.737-29.731,41.537-45.567c15.354-18.999,35.459-27.792,57.925-35.679c38.646-13.555,72.785-27.436,100.33-59.292
	c18.335-21.207,26.698-49.251,25.136-76.851h-447.567c2.107,12.425,3.934,24.773,6.485,36.122
	C1262.722-127.108,1269.239-106.812,1273.377-85.687z"/>
<g>
	<g>
		<path fill="none" stroke="#231F20" stroke-width="6" d="M869.429,537.304c-5.987-0.762-27.45-4.194-40.921-30.518
			c-13.058-25.508-3.492-77.433-3.492-77.433l16.467-148.39c0,0-115.162,57.872-139.733-22.886c-4.989-16.4-0.25-16.785-0.25-16.785
			h489.477c0,0,4.74,0.385-0.252,16.785c-24.567,80.757-139.731,22.886-139.731,22.886l16.469,148.39c0,0,9.565,51.925-3.491,77.433
			c-13.474,26.323-34.935,29.756-40.925,30.518H869.429z"/>
		<line fill="none" stroke="#231F20" stroke-width="6" x1="1030.984" y1="175.489" x2="998.941" y2="238.05"/>
		<line fill="none" stroke="#231F20" stroke-width="6" x1="907.01" y1="238.05" x2="874.967" y2="175.489"/>
		
			<ellipse transform="matrix(-0.3252 -0.9456 0.9456 -0.3252 744.9814 1451.8632)" fill="#231F20" stroke="#231F20" stroke-width="6" cx="890.482" cy="460.139" rx="8.397" ry="6.84"/>
		
			<ellipse transform="matrix(0.2511 -0.968 0.968 0.2511 306.2815 1316.1572)" fill="#231F20" stroke="#231F20" stroke-width="6" cx="1003.726" cy="460.14" rx="8.396" ry="6.843"/>
		<path fill="none" stroke="#231F20" stroke-width="6" d="M982.54,318.531c-7.864,0-14.237,6.661-14.237,14.886
			c0,8.219,6.373,14.88,14.237,14.88s14.233-6.661,14.233-14.88C996.773,325.192,990.404,318.531,982.54,318.531z"/>
		<path fill="none" stroke="#231F20" stroke-width="6" d="M909.299,319.671c-7.864,0-14.239,6.661-14.239,14.886
			c0,8.219,6.375,14.88,14.239,14.88c7.862,0,14.235-6.661,14.235-14.88C923.534,326.332,917.161,319.671,909.299,319.671z"/>
		<g>
			<line fill="none" stroke="#231F20" stroke-width="6" x1="840.921" y1="280.774" x2="866.67" y2="238.433"/>
		</g>
		<g>
			<line fill="none" stroke="#231F20" stroke-width="6" x1="1025.567" y1="238.467" x2="1051.316" y2="280.809"/>
		</g>
		<line fill="none" stroke="#231F20" stroke-width="6" x1="825.272" y1="427.813" x2="1067.881" y2="427.813"/>
		<path fill="none" stroke="#231F20" stroke-width="4" stroke-linecap="round" stroke-linejoin="round" d="M910.334,500.594
			c0,0,32.175,26.155,69.436,0"/>
	</g>
</g>
<g>
</g>
<g>
</g>
<g>
</g>
<g>
</g>
<g>
</g>
<g>
</g>
<g>
</g>
<g>
</g>
<g>
</g>
<g>
</g>
<g>
</g>
<g>
</g>
<g>
</g>
<g>
</g>
<g>
</g>
</svg>
